#!OML:ASF I:\Actors\actors\Patient Classification 2\Patient 1\Session 1\actor1.ASF
:FULLY-SPECIFIED
:DEGREES
382
root -0.75696 18.6646 5.4228 2.53227 -1.06696 -2.72597
lowerback 5.23813 0.691579 -1.47211
upperback -6.41764 0.789572 0.0437078
thorax -9.76922 0.491835 0.764339
lowerneck -11.86 -3.40592 -1.10552
upperneck -19.8653 -3.77032 5.18108
head -4.47715 -1.93851 1.96664
rclavicle 1.98785e-015 5.1684e-015
rhumerus 36.338 -13.8658 -27.7531
rradius 134.652
rwrist -29.01
rhand -13.0281 -38.8429
rfingers 7.12502
rthumb 13.0661 -68.4136
lclavicle 1.98785e-015 5.1684e-015
lhumerus -56.7003 -2.6661 79.9811
lradius 55.8127
lwrist 2.42848
lhand -4.79796 -28.7663
lfingers 7.12502
lthumb 20.9875 0.118203
rfemur 8.05084 0.51338 17.1094
rtibia -7.95139e-015
rfoot -16.6818 -10.0565
rtoes -6.94683
lfemur -3.0493 -6.04182 -11.7808
ltibia 21.5452
lfoot -23.2374 10.3134
ltoes -56.1388
383
root -0.756945 18.6629 5.43375 2.47766 -1.08478 -2.75364
lowerback 5.23879 0.687562 -1.4948
upperback -6.50656 0.781474 0.0460008
thorax -9.86848 0.49069 0.779943
lowerneck -15.9156 -3.02222 3.05655
upperneck -15.8856 -4.44777 -0.673349
head -2.58922 -2.34768 -0.836017
rclavicle -2.38542e-015 -1.98785e-015
rhumerus 36.4965 -14.0132 -27.7671
rradius 134.642
rwrist -28.6382
rhand -13.2175 -39.0585
rfingers 7.12502
rthumb 12.8835 -68.6409
lclavicle -2.38542e-015 -1.98785e-015
lhumerus -56.7047 -2.6038 79.9817
lradius 55.7712
lwrist 2.39973
lhand -4.75408 -28.713
lfingers 7.12502
lthumb 21.0297 0.16673
rfemur 8.14799 0.535022 17.1398
rtibia 3.49861e-014
rfoot -16.7226 -10.0297
rtoes -6.95166
lfemur -2.91686 -6.13379 -11.7752
ltibia 21.5026
lfoot -23.3183 10.4258
ltoes -56.2366
384
root -0.756925 18.6616 5.44302 2.43739 -1.09946 -2.71763
lowerback 5.26976 0.67636 -1.56859
upperback -6.60976 0.756135 0.0284808
thorax -10.0021 0.484358 0.805045
lowerneck -15.2391 -3.12821 1.96883
upperneck -16.7891 -4.29864 0.725526
head -2.94128 -2.23782 -0.176703
rclavicle 3.08116e-015 1.19271e-015
rhumerus 36.6941 -14.2396 -27.9215
rradius 134.616
rwrist -28.7837
rhand -13.4851 -39.2219
rfingers 7.12502
rthumb 12.6255 -68.8203
lclavicle 3.08116e-015 1.19271e-015
lhumerus -56.7754 -2.55144 79.9731
lradius 55.7905
lwrist 2.44611
lhand -4.73774 -28.6458
lfingers 7.12502
lthumb 21.0454 0.232272
rfemur 8.22305 0.550385 17.0999
rtibia 1.43125e-014
rfoot -16.7425 -10.0207
rtoes -7.09662
lfemur -2.80793 -6.24738 -11.8414
ltibia 21.459
lfoot -23.3991 10.5373
ltoes -56.2756
385
root -0.756648 18.6605 5.45115 2.41847 -1.13691 -2.71281
lowerback 5.29914 0.714255 -1.56878
upperback -6.67502 0.804565 0.00952787
thorax -10.0935 0.507955 0.777342
lowerneck -15.2053 -3.19029 1.52248
upperneck -17.1332 -4.27223 1.21016
head -3.0446 -2.20846 0.0600616
rclavicle -6.55989e-015 6.75868e-015
rhumerus 36.775 -14.502 -27.9525
rradius 134.605
rwrist -28.6744
rhand -14.023 -38.8021
rfingers 7.12502
rthumb 12.1069 -68.4319
lclavicle -6.55989e-015 6.75868e-015
lhumerus -56.7333 -2.60229 80.0787
lradius 55.8047
lwrist 2.51243
lhand -4.76523 -28.5001
lfingers 7.12502
lthumb 21.019 0.380862
rfemur 8.26903 0.58858 17.093
rtibia 4.77083e-015
rfoot -16.7625 -10.0156
rtoes -7.0862
lfemur -2.72013 -6.29685 -11.8651
ltibia 21.4107
lfoot -23.4394 10.5658
ltoes -56.17
386
root -0.756284 18.6586 5.45959 2.36771 -1.19138 -2.73979
lowerback 5.30626 0.757991 -1.53044
upperback -6.71629 0.863836 -0.0261577
thorax -10.144 0.532757 0.709011
lowerneck -15.37 -3.21363 1.61951
upperneck -17.2478 -4.32254 1.13044
head -3.06445 -2.23694 0.0158469
rclavicle -3.37934e-015 5.96354e-015
rhumerus 36.7713 -14.6203 -27.9405
rradius 134.623
rwrist -28.08
rhand -14.4336 -38.5454
rfingers 7.12502
rthumb 11.711 -68.1981
lclavicle -3.37934e-015 5.96354e-015
lhumerus -56.6435 -2.63856 80.1251
lradius 55.7404
lwrist 2.48899
lhand -4.82433 -28.5244
lfingers 7.12502
lthumb 20.9622 0.362819
rfemur 8.34889 0.646514 17.1212
rtibia 2.8625e-014
rfoot -16.804 -9.99074
rtoes -6.73748
lfemur -2.59331 -6.29478 -11.8537
ltibia 21.3649
lfoot -23.4658 10.5678
ltoes -56.1183
387
root -0.755014 18.6559 5.46869 2.25336 -1.26961 -2.74872
lowerback 5.32212 0.785628 -1.53346
upperback -6.75085 0.896837 -0.063554
thorax -10.1924 0.547694 0.665605
lowerneck -15.2599 -3.22212 1.6151
upperneck -17.5275 -4.31783 1.23218
head -3.17956 -2.23757 0.0556481
rclavicle -5.96354e-015 6.36111e-015
rhumerus 36.7741 -14.6292 -27.9456
rradius 134.671
rwrist -27.2488
rhand -14.6651 -38.6678
rfingers 7.12502
rthumb 11.4877 -68.333
lclavicle -5.96354e-015 6.36111e-015
lhumerus -56.6026 -2.5834 80.0837
lradius 55.6558
lwrist 2.41097
lhand -4.82568 -28.6546
lfingers 7.12502
lthumb 20.9609 0.232824
rfemur 8.49654 0.730702 17.1289
rtibia -3.33958e-014
rfoot -16.8399 -9.96658
rtoes -6.56486
lfemur -2.39162 -6.33732 -11.8858
ltibia 21.3349
lfoot -23.556 10.6688
ltoes -56.1376
388
root -0.753155 18.6542 5.4758 2.14134 -1.34009 -2.76157
lowerback 5.36248 0.810632 -1.55777
upperback -6.78339 0.926708 -0.0673141
thorax -10.2542 0.564291 0.670121
lowerneck -14.9551 -3.21771 1.32156
upperneck -17.9718 -4.22773 1.60702
head -3.37166 -2.18591 0.240577
rclavicle -1.6201e-014 -1.03368e-014
rhumerus 36.8652 -14.7747 -27.9762
rradius 134.68
rwrist -26.87
rhand -14.7606 -38.5513
rfingers 7.12502
rthumb 11.3956 -68.2216
lclavicle -1.6201e-014 -1.03368e-014
lhumerus -56.6156 -2.5746 80.1331
lradius 55.6646
lwrist 2.39343
lhand -4.8243 -28.7074
lfingers 7.12502
lthumb 20.9622 0.179826
rfemur 8.63597 0.807158 17.1411
rtibia 2.70347e-014
rfoot -16.8525 -9.98336
rtoes -6.82853
lfemur -2.20845 -6.41127 -11.9176
ltibia 21.3205
lfoot -23.6555 10.7837
ltoes -56.1232
389
root -0.751362 18.6533 5.47963 2.05534 -1.38944 -2.79171
lowerback 5.37372 0.809126 -1.58979
upperback -6.788 0.923225 -0.0434567
thorax -10.2672 0.566184 0.713851
lowerneck -14.7503 -3.15591 1.17053
upperneck -18.3335 -4.09524 1.84755
head -3.52725 -2.11937 0.356355
rclavicle 4.26393e-014 -7.95139e-016
rhumerus 37.0865 -14.9338 -28.087
rradius 134.652
rwrist -26.874
rhand -14.8092 -38.2374
rfingers 7.12502
rthumb 11.3488 -67.9103
lclavicle 4.26393e-014 -7.95139e-016
lhumerus -56.6373 -2.57411 80.2052
lradius 55.7386
lwrist 2.45777
lhand -4.82372 -28.7826
lfingers 7.12502
lthumb 20.9628 0.10458
rfemur 8.73169 0.861534 17.1751
rtibia -3.18055e-015
rfoot -16.8429 -10.0158
rtoes -7.09707
lfemur -2.08183 -6.41944 -11.9101
ltibia 21.3151
lfoot -23.6818 10.8231
ltoes -56.1327
390
root -0.749954 18.6519 5.48284 1.99479 -1.46811 -2.81734
lowerback 5.34745 0.79582 -1.63738
upperback -6.79062 0.903496 -0.0126823
thorax -10.2554 0.561557 0.776532
lowerneck -14.7928 -3.06105 1.22388
upperneck -18.391 -3.97674 1.84194
head -3.54306 -2.06476 0.347466
rclavicle 1.19271e-015 5.1684e-015
rhumerus 37.3156 -14.9714 -28.2099
rradius 134.653
rwrist -26.9354
rhand -14.8357 -38.151
rfingers 7.12502
rthumb 11.3232 -67.8253
lclavicle 1.19271e-015 5.1684e-015
lhumerus -56.6742 -2.52206 80.2386
lradius 55.8146
lwrist 2.51312
lhand -4.79557 -28.8145
lfingers 7.12502
lthumb 20.9898 0.0697211
rfemur 8.79338 0.943751 17.2021
rtibia -2.38542e-014
rfoot -16.8541 -9.99397
rtoes -6.79064
lfemur -1.99022 -6.37658 -11.9024
ltibia 21.3221
lfoot -23.7015 10.8657
ltoes -56.1531
391
root -0.74867 18.6505 5.48683 1.94044 -1.56621 -2.84181
lowerback 5.35554 0.805505 -1.64561
upperback -6.8122 0.916524 0.000899246
thorax -10.2852 0.569382 0.793503
lowerneck -14.8903 -3.01084 1.22263
upperneck -18.2984 -3.91576 1.81434
head -3.49391 -2.03316 0.336228
rclavicle -9.0447e-015 1.59028e-015
rhumerus 37.3952 -14.9465 -28.269
rradius 134.667
rwrist -27.0198
rhand -14.776 -38.2643
rfingers 7.12502
rthumb 11.3808 -67.9354
lclavicle -9.0447e-015 1.59028e-015
lhumerus -56.7137 -2.53259 80.3082
lradius 55.8902
lwrist 2.52062
lhand -4.72485 -28.6799
lfingers 7.12502
lthumb 21.0578 0.196739
rfemur 8.85614 1.04508 17.2259
rtibia 6.36111e-015
rfoot -16.8735 -9.96536
rtoes -6.37407
lfemur -1.91016 -6.33416 -11.8998
ltibia 21.3501
lfoot -23.7559 10.8844
ltoes -56.0992
